HIERARCHY
ROOT Hips
{
    OFFSET 0.000000 0.000000 0.000000
    CHANNELS 6 Xposition Yposition Zposition Zrotation Xrotation Yrotation
    JOINT Spine
    {
        OFFSET -0.000000 14.517291 0.000000
        CHANNELS 3 Zrotation Xrotation Yrotation
        JOINT Spine1
        {
            OFFSET -0.000000 37.558300 0.000000
            CHANNELS 3 Zrotation Xrotation Yrotation
            JOINT Neck
            {
                OFFSET -0.000000 37.404057 3.400369
                CHANNELS 3 Zrotation Xrotation Yrotation
                JOINT Head
                {
                    OFFSET -0.000000 24.785618 -3.540803
                    CHANNELS 3 Zrotation Xrotation Yrotation
                    End Site
                    {
                        OFFSET -0.000000 35.408028 0.000000
                    }
                }
            }
            JOINT LeftShoulder
            {
                OFFSET 6.992933 33.973492 -0.192664
                CHANNELS 3 Zrotation Xrotation Yrotation
                JOINT LeftArm
                {
                    OFFSET 21.527611 0.000000 0.000000
                    CHANNELS 3 Zrotation Xrotation Yrotation
                    JOINT LeftForeArm
                    {
                        OFFSET 56.353916 0.000000 0.000000
                        CHANNELS 3 Zrotation Xrotation Yrotation
                        JOINT LeftHand
                        {
                            OFFSET 47.774071 0.000000 0.000000
                            CHANNELS 3 Zrotation Xrotation Yrotation
                            End Site
                            {
                                OFFSET 26.556021 0.000000 0.000000
                            }
                        }
                    }
                }
            }
            JOINT RightShoulder
            {
                OFFSET -7.065357 33.973492 -0.192664
                CHANNELS 3 Zrotation Xrotation Yrotation
                JOINT RightArm
                {
                    OFFSET -21.527611 0.000000 0.000000
                    CHANNELS 3 Zrotation Xrotation Yrotation
                    JOINT RightForeArm
                    {
                        OFFSET -56.353916 0.000000 0.000000
                        CHANNELS 3 Zrotation Xrotation Yrotation
                        JOINT RightHand
                        {
                            OFFSET -47.774071 0.000000 0.000000
                            CHANNELS 3 Zrotation Xrotation Yrotation
                            End Site
                            {
                                OFFSET -26.556021 0.000000 0.000000
                            }
                        }
                    }
                }
            }
        }
    }
    JOINT LeftUpLeg
    {
        OFFSET 17.704014 0.000000 0.000000
        CHANNELS 3 Zrotation Xrotation Yrotation
        JOINT LeftLeg
        {
            OFFSET -0.000000 -81.181816 0.000000
            CHANNELS 3 Zrotation Xrotation Yrotation
            JOINT LeftFoot
            {
                OFFSET -0.000000 -62.821102 0.000000
                CHANNELS 3 Zrotation Xrotation Yrotation
                JOINT LeftToeBase
                {
                    OFFSET -0.000000 -11.507608 26.556021
                    CHANNELS 3 Zrotation Xrotation Yrotation
                    End Site
                    {
                        OFFSET -0.000000 0.000000 7.081605
                    }
                }
            }
        }
    }
    JOINT RightUpLeg
    {
        OFFSET -17.704014 0.000000 0.000000
        CHANNELS 3 Zrotation Xrotation Yrotation
        JOINT RightLeg
        {
            OFFSET -0.000000 -81.181816 0.000000
            CHANNELS 3 Zrotation Xrotation Yrotation
            JOINT RightFoot
            {
                OFFSET -0.000000 -62.821102 0.000000
                CHANNELS 3 Zrotation Xrotation Yrotation
                JOINT RightToeBase
                {
                    OFFSET -0.000000 -11.507608 26.556021
                    CHANNELS 3 Zrotation Xrotation Yrotation
                    End Site
                    {
                        OFFSET -0.000000 0.000000 7.081605
                    }
                }
            }
        }
    }
}
MOTION
Frames:    9
Frame Time:    0.008333
5.967196    155.074554    -121.714638    -6.037271    -3.093530    36.689217    0.913853    -1.950760    -0.402642    -8.924351    -0.271756    -0.162181    3.158468    -1.703959    -20.132771    15.912091    7.997634    -20.437155    6.058369    8.989886    -17.890919    -33.199730    23.841185    -49.171066    -6.954149    -9.380704    -114.886726    4.030327    -20.121145    -5.307690    -13.497945    -4.197244    -5.840699    20.304983    -19.927385    51.325577    -18.206791    -18.135462    40.925449    1.616294    -11.045595    32.518738    19.407581    -4.576044    1.381042    -14.449798    37.469467    -20.188538    10.370178    -28.036421    43.320133    0.000000    0.000000    0.000000    -13.260981    -24.538193    -17.773966    12.865247    24.456148    -15.589454    0.771921    9.422090    -7.627134    0.000000    0.000000    0.000000    
6.078494    155.138199    -121.318008    -5.843910    -3.124637    36.881134    1.023601    -2.094113    -0.446385    -8.918067    -0.351777    -0.185025    2.981734    -1.525123    -20.236723    15.976896    8.274556    -20.547703    5.902197    9.032240    -17.754829    -33.156597    23.935736    -49.143078    -7.008720    -9.299279    -114.873795    3.995776    -20.123505    -5.383825    -13.570618    -4.028412    -5.871123    20.296795    -19.867670    51.200092    -18.092022    -18.184797    40.934017    1.794885    -11.083654    32.727398    19.296553    -4.194623    1.218341    -14.340427    37.067768    -20.243338    10.201432    -27.957823    43.197262    0.000000    0.000000    0.000000    -13.461930    -24.344702    -18.039982    12.884008    24.809385    -15.481838    0.821611    9.117589    -7.640964    0.000000    0.000000    0.000000    
6.166773    155.190552    -120.938805    -5.659446    -3.194417    37.091591    1.087877    -2.168653    -0.492816    -8.855318    -0.440193    -0.207679    2.896040    -1.403267    -20.464481    15.964026    8.561576    -20.812098    5.820079    9.085729    -17.682791    -33.249477    23.912853    -49.129711    -7.105258    -9.079235    -114.828568    3.886503    -20.043718    -5.374426    -13.595753    -4.014698    -5.883670    20.156345    -19.715670    50.914814    -18.027306    -18.050926    41.008167    1.668814    -10.997202    32.454895    19.217453    -3.835575    1.010146    -14.245593    36.726440    -20.305939    10.040175    -27.907070    43.115128    0.000000    0.000000    0.000000    -13.630306    -24.139439    -18.252483    12.910722    25.146168    -15.374178    0.893576    8.864514    -7.725285    0.000000    0.000000    0.000000    
6.238724    155.239670    -120.571373    -5.501989    -3.250701    37.317963    1.187604    -2.233280    -0.549970    -8.869846    -0.559188    -0.237178    2.916109    -1.266386    -20.533155    15.894273    8.716891    -20.910362    5.850946    9.249997    -17.511148    -33.212955    23.969013    -49.346172    -7.117353    -9.067851    -114.742088    3.780346    -20.031366    -5.459082    -13.544226    -3.918892    -5.944602    20.009186    -19.641760    50.717838    -17.908968    -18.101007    41.014790    1.812653    -11.046611    32.732563    19.149780    -3.539923    0.753547    -14.168009    36.419991    -20.329378    9.892139    -27.857254    43.056580    0.000000    0.000000    0.000000    -13.852204    -23.945536    -18.328726    13.158566    25.461481    -15.383944    0.923242    8.589783    -7.931768    0.000000    0.000000    0.000000    
6.303681    155.284927    -120.186028    -5.340333    -3.344934    37.549892    1.246045    -2.290907    -0.620503    -8.778251    -0.608207    -0.264443    2.865859    -1.185686    -20.592920    15.832967    8.851427    -20.985697    5.714575    9.197466    -17.510029    -33.362537    23.975370    -49.152431    -7.178442    -8.806736    -114.741714    3.728563    -19.872456    -5.491099    -13.527147    -3.848484    -5.979272    19.898727    -19.679853    50.536003    -17.771242    -17.986492    41.092819    1.718268    -10.993123    32.784775    19.105749    -3.223108    0.495710    -14.078314    36.140598    -20.342731    9.731950    -27.818886    42.984539    0.000000    0.000000    0.000000    -14.004798    -23.727755    -18.395895    13.308480    25.780825    -15.557348    0.959650    8.320724    -7.920223    0.000000    0.000000    0.000000    
6.340064    155.324692    -119.815536    -5.212897    -3.427650    37.787842    1.354288    -2.321054    -0.684704    -8.779556    -0.699382    -0.293829    2.925651    -1.122813    -20.672400    15.691152    8.945330    -21.098715    5.746032    9.276227    -17.394451    -33.431267    23.960939    -49.239365    -7.264909    -8.616693    -114.706436    3.645969    -19.810141    -5.518939    -13.490688    -3.801670    -6.036697    19.792492    -19.680481    50.317287    -17.705126    -17.910324    41.174812    1.742089    -10.918229    32.787418    19.091002    -2.980182    0.262933    -13.981961    35.938087    -20.399689    9.594853    -27.781155    42.935379    0.000000    0.000000    0.000000    -14.103418    -23.548496    -18.643991    13.304690    26.135889    -15.446956    1.019599    8.046919    -7.969668    0.000000    0.000000    0.000000    
6.369156    155.342453    -119.466255    -5.085009    -3.531957    38.029018    1.443372    -2.328799    -0.746947    -8.728258    -0.780126    -0.320984    2.939783    -0.994101    -20.737080    15.611133    8.937496    -21.169138    5.728380    9.335416    -17.360073    -33.467358    23.997698    -49.274910    -7.295344    -8.544075    -114.682640    3.632781    -19.780075    -5.489849    -13.469705    -3.803187    -6.071872    19.685656    -19.714006    50.087830    -17.595312    -17.781151    41.256638    1.704806    -10.823368    32.770531    19.079596    -2.739932    0.057527    -13.840485    35.772251    -20.489902    9.480884    -27.777662    42.877869    0.000000    0.000000    0.000000    -14.197014    -23.367741    -18.827930    13.342714    26.488352    -15.319566    1.093346    7.772438    -8.126485    0.000000    0.000000    0.000000    
6.414888    155.338120    -119.124649    -4.950982    -3.649613    38.287506    1.570784    -2.332432    -0.801440    -8.715062    -0.818496    -0.343055    2.948411    -0.888164    -20.829823    15.528901    8.891404    -21.263666    5.712661    9.343478    -17.415464    -33.508884    24.051003    -49.218513    -7.281066    -8.532547    -114.698723    3.552779    -19.748032    -5.510864    -13.442215    -3.795789    -6.166213    19.534639    -19.742683    49.907341    -17.535774    -17.685080    41.294685    1.597026    -10.771698    32.748482    19.067131    -2.504608    -0.181384    -13.716421    35.638165    -20.586901    9.435127    -27.791113    42.873871    0.000000    0.000000    0.000000    -14.338699    -23.143732    -18.983587    13.512625    26.813473    -15.266272    1.092077    7.465243    -8.290577    0.000000    0.000000    0.000000    
6.404141    155.309616    -118.765167    -4.807651    -3.759485    38.499138    1.551452    -2.287427    -0.844425    -8.638388    -0.875965    -0.359790    3.187985    -0.907063    -20.874126    15.245018    8.873790    -21.362537    5.870469    9.398443    -17.379154    -33.633247    24.035635    -49.350464    -7.337976    -8.380436    -114.642944    3.549488    -19.677942    -5.572808    -16.180008    -7.769265    -6.833232    23.269272    -17.110561    48.714935    -15.906384    -15.874146    42.515450    0.818893    -9.558673    33.069168    19.086197    -2.276774    -0.346864    -13.624383    35.557068    -20.689241    9.400430    -27.811693    42.855450    0.000000    0.000000    0.000000    -14.402235    -22.987795    -19.170227    13.516461    27.223839    -15.212433    1.114922    7.096592    -8.340359    0.000000    0.000000    0.000000    
